# xmcd
#
# Track frame offsets: 
#        150
#        16621
#        32164
#        47532
#        65747
#        80604
#        102911
#        121127
#        137359
#        154173
#        172330
#        191888
#
# Disc length: 2793 seconds
#
# Revision: 0
# Processed by: cddbd v1.5.2PL0 Copyright (c) Steve Scherf et al.
# Submitted via: ExactAudioCopy v1.0b5
#
DISCID=9d0ae70c
DTITLE=Zucchero - Black Cat (Deluxe Edition) - cd2
DYEAR=2016
DGENRE=Rock
TTITLE0=Partigiano Reggiano
TTITLE1=13 Buone Ragioni
TTITLE2=Ti Voglio Sposare
TTITLE3=Ci Si Arrende
TTITLE4=Ten More Days
TTITLE5=L'Anno Dell'Amore
TTITLE6=Hey Lord
TTITLE7=Fatti Di Sogni
TTITLE8=La Tortura Della Luna
TTITLE9=Love Again
TTITLE10=Terra Incognita
TTITLE11=Voci
EXTD=
EXTT0=
EXTT1=
EXTT2=
EXTT3=
EXTT4=
EXTT5=
EXTT6=
EXTT7=
EXTT8=
EXTT9=
EXTT10=
EXTT11=
PLAYORDER=
